<svg xmlns="http://www.w3.org/2000/svg" width="55.789" height="47.655" viewBox="0 0 55.789 47.655">
  <g id="playliest" transform="translate(-18.34 -18.34)">
    <g id="Group_30" data-name="Group 30" transform="translate(19.09 19.09)">
      <rect id="Rectangle_7" data-name="Rectangle 7" width="1.273" height="1.273" transform="translate(24.299 26.181)" fill="none" stroke="#fbfcfc" stroke-width="1.5"/>
      <rect id="Rectangle_8" data-name="Rectangle 8" width="1.273" height="1.273" transform="translate(24.299 16.832)" fill="none" stroke="#fbfcfc" stroke-width="1.5"/>
      <rect id="Rectangle_9" data-name="Rectangle 9" width="1.273" height="1.273" transform="translate(24.299 7.481)" fill="none" stroke="#fbfcfc" stroke-width="1.5"/>
      <rect id="Rectangle_10" data-name="Rectangle 10" width="1.273" height="1.273" transform="translate(24.299 35.532)" fill="none" stroke="#fbfcfc" stroke-width="1.5"/>
      <path id="Path_6" data-name="Path 6" d="M53.2,0H1.086A1.015,1.015,0,0,0,0,.923V45.232a1.014,1.014,0,0,0,1.086.923H53.2a1.014,1.014,0,0,0,1.086-.923V.923A1.014,1.014,0,0,0,53.2,0ZM16.287,11.077a2.532,2.532,0,0,1-1.086-.264v8.572c0,1.553-1.908,2.769-4.343,2.769s-4.343-1.217-4.343-2.769,1.908-2.769,4.343-2.769a6.361,6.361,0,0,1,2.172.373V6.462a1.015,1.015,0,0,1,1.086-.923,1.015,1.015,0,0,1,1.086.923c0,1.787.815,2.769,1.086,2.769a1.015,1.015,0,0,1,1.086.923,1.015,1.015,0,0,1-1.086.923Zm11.944,26.77a1.014,1.014,0,0,1-1.086.923H22.8a1.014,1.014,0,0,1-1.086-.923V34.155a1.014,1.014,0,0,1,1.086-.923h4.343a1.014,1.014,0,0,1,1.086.923v3.692Zm0-9.231a1.014,1.014,0,0,1-1.086.923H22.8a1.014,1.014,0,0,1-1.086-.923V24.924A1.014,1.014,0,0,1,22.8,24h4.343a1.014,1.014,0,0,1,1.086.923v3.692Zm0-9.231a1.015,1.015,0,0,1-1.086.923H22.8a1.015,1.015,0,0,1-1.086-.923V15.693A1.015,1.015,0,0,1,22.8,14.77h4.343a1.015,1.015,0,0,1,1.086.923v3.692Zm0-9.231a1.015,1.015,0,0,1-1.086.923H22.8a1.015,1.015,0,0,1-1.086-.923V6.462A1.015,1.015,0,0,1,22.8,5.539h4.343a1.015,1.015,0,0,1,1.086.923v3.692Zm16.287,26.77H31.488a.935.935,0,1,1,0-1.846h13.03a.935.935,0,1,1,0,1.846Zm0-9.231H31.488a.935.935,0,1,1,0-1.846h13.03a.935.935,0,1,1,0,1.846Zm0-9.231H31.488a1.014,1.014,0,0,1-1.086-.923,1.014,1.014,0,0,1,1.086-.923h13.03a1.014,1.014,0,0,1,1.086.923,1.014,1.014,0,0,1-1.086.923Zm0-9.231H31.488A1.014,1.014,0,0,1,30.4,8.308a1.014,1.014,0,0,1,1.086-.923h13.03a1.014,1.014,0,0,1,1.086.923,1.014,1.014,0,0,1-1.086.923Z" fill="none" stroke="#fbfcfc" stroke-width="1.5"/>
      <path id="Path_7" data-name="Path 7" d="M6.364,12.727c-.777,0-1.273.377-1.273.636s.5.636,1.273.636,1.273-.377,1.273-.636-.5-.636-1.273-.636Z" transform="translate(3.908 5.974)" fill="none" stroke="#fbfcfc" stroke-width="1.5"/>
    </g>
  </g>
</svg>
